<svg xmlns="http://www.w3.org/2000/svg" xmlns:xlink="http://www.w3.org/1999/xlink">
<symbol width="32" height="32" id="fb-icon" >
<path d="M16 0a16 16 0 100 32 16 16 0 000-32zm4.06 9.45H17v3.45h3v3.44h-3V25h-3v-8.66h-3V12.9h3V9.45A3.25 3.25 0 0117 6h3v3.45h.06z"/>
</symbol>
<symbol width="108" height="31" id="html-icon">
  <path d="M0 12.1v2.419h2.31v-2.42H0zM10.949 4.255c-1.467 0-2.652.665-3.396 1.633h-.08V0H5.564v14.519h1.909v-4.98c0-1.997 1.246-3.429 3.074-3.429 1.728 0 2.733 1.29 2.733
   3.025v5.384h1.909V8.792c0-2.763-1.708-4.537-4.24-4.537zM25.023 4.537h-4.52V1.008h-1.91v3.53h-1.808v1.854h1.808v5.627c0 1.613.904 2.5 2.532 2.5h3.898v-1.875h-3.516c-.643
    0-1.005-.363-1.005-.988V6.392h4.521V4.537zM38.659 4.275c-1.527 0-2.693.746-3.336 1.936h-.06c-.583-1.17-1.668-1.936-3.154-1.936-1.327 0-2.331.706-2.934 1.694h-.08V4.537h-1.829v9.982h1.909V9.397c0-1.875.984-3.247
     2.471-3.287 1.407-.04 2.23.968 2.23 2.48v5.929h1.91V9.236c0-2.239 1.326-3.126 2.471-3.126 1.386 0 2.21.968 2.21 2.48v5.929h1.909v-6.13c0-2.42-1.366-4.114-3.717-4.114zM44.963
      11.938c0 1.633.924 2.581 2.632 2.581h1.889v-1.855h-1.608c-.643 0-1.005-.363-1.005-.988V0h-1.908v11.938zM27.174 18.511h-.08c-.745-1.002-1.953-1.704-3.564-1.724-2.959-.04-5.072
       2.145-5.072 5.232 0 3.108 2.154 5.293 5.052 5.253 1.65-.02 2.838-.762 3.583-1.825h.08v1.544h1.893v-9.923h-1.892v1.443zm-3.382 6.916c-2.093 0-3.422-1.523-3.422-3.408 0-1.884
        1.329-3.408 3.422-3.408 2.033 0 3.362 1.524 3.362 3.408 0 1.865-1.329 3.408-3.362 3.408zM41.562 20.676c-.463-2.245-2.456-3.89-5.073-3.89-3.16 0-5.273 2.306-5.273 5.233 0 2.927
         2.113 5.253 5.273 5.253 2.617 0 4.61-1.684 5.073-3.95h-1.993c-.402 1.263-1.59 2.125-3.06 2.125-2.053 0-3.381-1.543-3.381-3.428 0-1.884 1.328-3.408 3.382-3.408 1.53 0 2.657.902
         3.06 2.065h1.992zM51.785 18.511h-.08c-.745-1.002-1.953-1.704-3.564-1.724-2.959-.04-5.072 2.145-5.072 5.232 0 3.108 2.154 5.293 5.052 5.253 1.65-.02 2.838-.762
         3.583-1.825h.08v1.544h1.893v-9.923h-1.892v1.443zm-3.382 6.916c-2.093 0-3.422-1.523-3.422-3.408 0-1.884 1.328-3.408 3.422-3.408 2.033 0 3.361 1.524 3.361 3.408 0
          1.865-1.328 3.408-3.36 3.408zM64.542 18.611h-.08c-.745-1.062-1.993-1.804-3.583-1.824-2.899-.04-5.053 2.145-5.053 5.252 0 3.087 2.114 5.272 5.073 5.232 1.57-.02 2.818-.721
          3.543-1.724h.1v1.444h1.892V12.557h-1.892v6.054zm-3.381 6.836c-2.094 0-3.422-1.523-3.422-3.408 0-1.884 1.328-3.408 3.422-3.408 2.033 0 3.361 1.544 3.361 3.408 0 1.885-1.328
          3.408-3.361 3.408zM73.639 16.787c-3.06 0-5.153 2.345-5.153 5.252 0 2.827 1.972 5.232 5.193 5.232 2.335 0 4.207-1.262 4.871-3.367h-1.993c-.442.942-1.51 1.543-2.797 1.543-1.812
           0-3.1-1.203-3.241-2.746h8.232c.262-3.308-1.811-5.914-5.112-5.914zm-.04 1.824c1.59 0 2.777.982 3.08 2.406h-6.12c.282-1.404 1.47-2.406 3.04-2.406zM92.317 16.807c-1.53
            0-2.697.742-3.34 1.924h-.061c-.584-1.162-1.67-1.924-3.16-1.924-1.329 0-2.335.702-2.94 1.684h-.08v-1.423h-1.832v9.923h1.913v-5.092c0-1.864.986-3.228 2.476-3.268 1.408-.04
             2.234.962 2.234 2.466v5.894h1.912v-5.253c0-2.225 1.329-3.107 2.476-3.107 1.389 0 2.214.962 2.214 2.466v5.894h1.912v-6.095c0-2.405-1.368-4.089-3.724-4.089zM102.887
             25.407l-3.422-8.34h-2.113l4.549 10.866-.02.04c-.322.822-.685 1.123-1.57 1.123h-2.355V31h2.355c1.731 0 2.657-.782 3.301-2.466L108 17.068h-1.953l-3.16 8.339z"/>
</symbol>
<symbol id="inst-icon">
  <g>
  <path d="M20.92 16A4.96 4.96 0 1111 16c.001-.384.048-.767.14-1.14h-.9v6.84h11.4v-6.84h-.9c.1.373.161.755.18 1.14z"/>
  <path d="M16 18.66A2.66 2.66 0 1013.32 16 2.67 2.67 0 0016 18.66zM21.68 10.3h-3.04v3.04h3.04V10.3z"/>
  <path d="M16 0a16 16 0 100 32 16 16 0 000-32zm8 21.7a2.28 2.28 0 01-2.32 2.3h-11.4A2.29 2.29 0 018 21.7V10.3A2.29 2.29 0 0110.28 8h11.39A2.29 2.29 0 0124 10.3v11.4z"/>
  </g>
</symbol>
<symbol width="32" height="32" id="tw-icon">
  <path d="M16 0a16 16 0 100 32 16 16 0 000-32zm7.94 12.81c-.25 6.52-3.46 10.83-11 10.7h-.48c-.45 0-4.55-.44-5.35-1.82a7.32 7.32 0 005.12-1.14c-1.05-.29-2.92-.46-3.25-2.85a2.31 2.31
   0 001.3.12C9 17 7.53 16.3 7.61 14.17c.418.32.935.482 1.46.46-.77-.23-2.15-3.24-1-4.78 2 1.79 4.07 3.48 7.8 3.64.23-2.21 1.24-3.7 3.17-4.32A3.61 3.61 0 0123 10.31c.74-.23 1.45-.47
    2.19-.69a2.21 2.21 0 01-.93 1.71 1.77 1.77 0 001.42-.47 2.9 2.9 0 01-1.74 1.95z"/>
</symbol>
<symbol width="32" height="32" id="vk-icon">
  <path d="M16.64 14.49c.325 0 .648-.06.95-.18a1.2 1.2 0 00.64-.56 2 2 0 00.15-.8 1.55 1.55 0 00-.18-.7 1.05 1.05 0 00-.61-.51 3 3 0 00-1-.17h-2v3h.57c.59-.05 1.08-.06 1.48-.08zM18.12
  17.08A4.851 4.851 0 0017 17h-2.39v3.5h2.45a3.23 3.23 0 001.21-.25c.321-.11.593-.33.77-.62a1.9 1.9 0 00.22-.9 1.76 1.76 0 00-.26-1 1.6 1.6 0 00-.88-.65z"/>
  <path d="M16 0a16 16 0 100 32 16 16 0 000-32zm6.6 20.53a3.7 3.7 0 01-1.12 1.33 5.17 5.17 0 01-1.83.88 9.76 9.76 0 01-2.51.27H11V9h5.45a20.61 20.61 0 012.48.11 5.25 5.25 0 011.56.5 2.75
  2.75 0 011.19 1.09c.265.473.4 1.008.39 1.55a3.08 3.08 0 01-.54 1.8 3.46 3.46 0 01-1.53 1.2v.07a4 4 0 012.18 1.13 3.2 3.2 0 01.8 2.26 3.841 3.841 0 01-.38 1.82z"/>
</symbol>
<symbol width="21" height="20" id="bascet-icon">
  <path d="M5.703 2l-.241-2H0v2h3.668l1.511 13h14.108L21 2H5.703zm11.8 11H6.973L5.965 4h12.727l-1.189 9zM7.034 20a2.008 2.008 0 002.015-2c0-1.105-.902-2-2.015-2a2.008 2.008 0 00-2.016 2c0
   1.105.903 2 2.016 2zM16.103 20a2.008 2.008 0 002.015-2c0-1.105-.902-2-2.015-2a2.008 2.008 0 00-2.016 2c0 1.105.903 2 2.016 2z"/>
</symbol>
<symbol width="20" height="19" id="go-icon">
  <path d="M6.04 14.88l6.92-5.38-6.92-5.37v2.91H0v4.92h6.04v2.92z"/><path d="M18 0H5a2 2 0 00-2 2v2h2V2h13v15H5v-2H3v2a2 2 0 002 2h13a2 2 0 002-2V2a2 2 0 00-2-2z"/>
</symbol>
<symbol width="15" height="13" id="heart-icon">
  <path d="M10.8 0a4.1 4.1 0 00-3.3 1.66A4.1 4.1 0 004.2 0 4.12 4.12 0 000 4c0 3.18 7.5 9 7.5 9S15 7.22 15 4a4.12 4.12 0 00-4.2-4z"/>
</symbol>
<symbol width="16" height="16" id="search-icon">
  <path d="M16 14.665l-4.921-4.932a6.144 6.144 0 00-.994-8.273 6.113 6.113 0 00-8.307.352 6.141 6.141 0 00-.293 8.328 6.11 6.11 0 008.262.937L14.659 16 16 14.665zm-9.918-4.288a4.245 4.245
   0 01-3.928-2.63 4.269 4.269 0 01.922-4.643 4.248 4.248 0 014.632-.923 4.253 4.253 0 012.624 3.936 4.274 4.274 0 01-1.247 3.01 4.256 4.256 0 01-3.003 1.25z"/>
</symbol>
</svg>
